<mxfile host="app.diagrams.net" modified="2023-07-18T04:34:46.168Z" agent="Mozilla/5.0 (X11; Linux x86_64) AppleWebKit/537.36 (KHTML, like Gecko) Chrome/114.0.0.0 Safari/537.36" version="21.6.2" etag="70smhVAQLdh_xf3_TWcX" type="github">
  <diagram name="Page-1" id="QDvnBRE4rmyzGs2vPXQc">
    <mxGraphModel>
      <root>
        <mxCell id="0" />
        <mxCell id="1" parent="0" />
      </root>
    </mxGraphModel>
  </diagram>
</mxfile>
